<svg xmlns="http://www.w3.org/2000/svg" xmlns:xlink="http://www.w3.org/1999/xlink" width="500" zoomAndPan="magnify" viewBox="0 0 375 374.999991" height="500" preserveAspectRatio="xMidYMid meet" version="1.0"><defs><clipPath id="3b6fad139b"><path d="M 68.738281 37.5 L 313.988281 37.5 L 313.988281 337.5 L 68.738281 337.5 Z M 68.738281 37.5 " clip-rule="nonzero"/></clipPath></defs><g clip-path="url(#3b6fad139b)"><path fill="#ffae1e" d="M 140.589844 37.910156 C 140.886719 38.019531 237.097656 75.007812 268.265625 150.402344 C 273.941406 141.246094 281 128.304688 282.746094 118.019531 C 283.378906 114.191406 287 111.613281 290.816406 112.246094 C 293.335938 112.667969 295.308594 114.375 296.179688 116.585938 C 298.605469 122.230469 365.492188 280.78125 223.394531 336.386719 C 219.789062 337.796875 215.714844 336.019531 214.292969 332.402344 C 213.675781 330.824219 213.675781 329.160156 214.152344 327.683594 C 228.292969 284.132812 221.449219 253.035156 207.871094 236.414062 C 201.039062 228.050781 192.605469 223.554688 184.644531 223.316406 C 177.109375 223.089844 169.800781 226.808594 164.703125 234.824219 C 154.773438 250.375 152.675781 280.667969 169.503906 328.105469 C 170.789062 331.753906 168.871094 335.769531 165.222656 337.0625 C 164.222656 337.414062 163.195312 337.527344 162.195312 337.429688 C 139.394531 336.289062 120.730469 329.515625 106.210938 318.992188 C 92.984375 309.414062 83.238281 296.726562 77 282.332031 C 70.828125 268.089844 68.109375 252.230469 68.886719 236.132812 C 69.941406 213.964844 77.546875 191.261719 91.730469 171.683594 C 95.773438 166.105469 100.082031 160.949219 104.363281 155.808594 C 123.714844 132.597656 142.96875 109.542969 131.140625 45.710938 C 130.433594 41.910156 132.957031 38.246094 136.773438 37.542969 C 138.097656 37.304688 139.421875 37.457031 140.589844 37.910156 Z M 140.589844 37.910156 " fill-opacity="1" fill-rule="evenodd"/></g></svg>